<svg width="108" height="88" viewBox="0 0 108 88" fill="none" xmlns="http://www.w3.org/2000/svg">
<path d="M72.3 25.65C64.68 25.65 56.94 25.34 49.7 23.33C42.46 21.32 36.1 17.53 30.24 13.1C26.43 10.21 22.95 7.92001 18.02 8.27001C13.1848 8.52735 8.56045 10.3329 4.83005 13.42C-1.49995 18.93 -0.499956 29.12 2.00004 36.28C5.78004 47.08 17.29 54.57 27.07 59.46C38.37 65.1 50.78 68.38 63.23 70.27C74.23 71.93 88.16 73.13 97.61 66C106.3 59.46 108.68 44.51 106.55 34.42C106.035 31.4379 104.449 28.7463 102.09 26.85C95.99 22.39 86.89 25.37 80.03 25.52C77.5 25.58 74.9 25.64 72.3 25.65Z" fill="#F2F2F2"/>
<path d="M10.3696 36.1516L93.0375 21.7089L98.5361 53.1822C98.6981 54.1097 98.4851 55.0635 97.9439 55.8339C97.4026 56.6043 96.5775 57.1282 95.65 57.2902L19.9762 70.511C19.0488 70.673 18.0949 70.46 17.3245 69.9188C16.5541 69.3775 16.0303 68.5524 15.8683 67.6249L10.3696 36.1516Z" fill="white" stroke="#BABABA" stroke-linecap="round" stroke-linejoin="round"/>
<path d="M92.658 21.7761L10.7683 36.0829L11.9524 42.8602L93.842 28.5535L92.658 21.7761Z" fill="#D2D2D2"/>
<path d="M44.3233 30.2179L59.0995 27.6364L62.2971 45.9392C62.3935 46.4905 62.2668 47.0574 61.9451 47.5153C61.6234 47.9732 61.133 48.2845 60.5818 48.3809L49.9528 50.2378C49.4015 50.3341 48.8346 50.2075 48.3767 49.8858C47.9188 49.5641 47.6074 49.0737 47.5111 48.5224L44.3135 30.2197L44.3233 30.2179Z" fill="white" stroke="#BABABA" stroke-linecap="round" stroke-linejoin="round"/>
<path d="M17.7251 16.4404L79.4698 5.65314C82.2496 5.16749 85.1085 5.80599 87.4175 7.4282C89.7265 9.05041 91.2966 11.5234 91.7822 14.3032L93.0764 21.711L10.379 36.1589L9.0831 28.7413C8.60065 25.9644 9.23966 23.1096 10.8599 20.8034C12.4801 18.4972 14.9491 16.9281 17.7251 16.4404Z" fill="white" stroke="#BABABA" stroke-linecap="round" stroke-linejoin="round"/>
<path d="M56.0899 35.59C56.1945 36.1798 56.1341 36.7871 55.9152 37.3448C55.6964 37.9024 55.3277 38.3887 54.8499 38.75L55.4999 42.26C55.5356 42.456 55.5317 42.6571 55.4883 42.8515C55.445 43.046 55.3631 43.2297 55.2475 43.3919C55.1318 43.5542 54.9849 43.6915 54.8153 43.796C54.6456 43.9004 54.4568 43.9698 54.2599 44C54.0642 44.036 53.8633 44.033 53.6687 43.9911C53.4741 43.9493 53.2898 43.8693 53.1262 43.756C52.9627 43.6426 52.8231 43.498 52.7156 43.3305C52.6081 43.163 52.5348 42.9759 52.4999 42.78L51.8899 39.27C51.3217 39.0844 50.8143 38.7484 50.4217 38.2977C50.029 37.8469 49.7658 37.2983 49.6599 36.71C49.5114 35.86 49.7066 34.9858 50.2026 34.2797C50.6987 33.5736 51.4549 33.0935 52.3049 32.945C53.1549 32.7965 54.0291 32.9917 54.7352 33.4877C55.4413 33.9838 55.9214 34.74 56.0699 35.59H56.0899Z" fill="#D2D2D2"/>
<path d="M47.7101 9.01999C48.2016 9.01999 48.6001 8.62152 48.6001 8.12999C48.6001 7.63846 48.2016 7.23999 47.7101 7.23999C47.2185 7.23999 46.8201 7.63846 46.8201 8.12999C46.8201 8.62152 47.2185 9.01999 47.7101 9.01999Z" fill="#CFCFCF"/>
<path d="M5.35997 8.06C5.8515 8.06 6.24997 7.66153 6.24997 7.17C6.24997 6.67846 5.8515 6.28 5.35997 6.28C4.86844 6.28 4.46997 6.67846 4.46997 7.17C4.46997 7.66153 4.86844 8.06 5.35997 8.06Z" fill="#CFCFCF"/>
<path d="M6.64 60.66C7.13153 60.66 7.53 60.2615 7.53 59.77C7.53 59.2785 7.13153 58.88 6.64 58.88C6.14847 58.88 5.75 59.2785 5.75 59.77C5.75 60.2615 6.14847 60.66 6.64 60.66Z" fill="#CFCFCF"/>
<path d="M36.75 0.890015V4.81002" stroke="#BABABA" stroke-linecap="round" stroke-linejoin="round"/>
<path d="M34.79 2.85001H38.7" stroke="#BABABA" stroke-linecap="round" stroke-linejoin="round"/>
<path d="M42.1001 71.93V75.84" stroke="#BABABA" stroke-linecap="round" stroke-linejoin="round"/>
<path d="M40.1499 73.88H44.0599" stroke="#BABABA" stroke-linecap="round" stroke-linejoin="round"/>
<path d="M102.52 11.24V15.16" stroke="#BABABA" stroke-linecap="round" stroke-linejoin="round"/>
<path d="M100.57 13.2H104.48" stroke="#BABABA" stroke-linecap="round" stroke-linejoin="round"/>
<path d="M53.6801 87.95C72.1098 87.95 87.0501 87.0188 87.0501 85.87C87.0501 84.7213 72.1098 83.79 53.6801 83.79C35.2503 83.79 20.3101 84.7213 20.3101 85.87C20.3101 87.0188 35.2503 87.95 53.6801 87.95Z" fill="#F2F2F2"/>
</svg>
