<svg width="129" height="58" viewBox="0 0 129 58" fill="none" xmlns="http://www.w3.org/2000/svg">
<path d="M15.4079 29.504C17.6639 29.504 19.3119 28.96 20.3519 27.872C21.4079 26.784 21.9359 25.296 21.9359 23.408C21.9359 22.544 21.7999 21.76 21.528 21.056C21.2719 20.336 20.8719 19.728 20.3279 19.232C19.7999 18.72 19.1279 18.328 18.3119 18.056C17.4959 17.784 16.5279 17.648 15.4079 17.648H10.8479V29.504H15.4079ZM15.4079 12.176C17.7919 12.176 19.8479 12.456 21.576 13.016C23.32 13.576 24.7519 14.36 25.872 15.368C26.9919 16.36 27.816 17.544 28.344 18.92C28.888 20.296 29.16 21.792 29.16 23.408C29.16 25.12 28.8799 26.688 28.32 28.112C27.76 29.536 26.912 30.76 25.7759 31.784C24.6399 32.808 23.208 33.608 21.4799 34.184C19.7519 34.744 17.728 35.024 15.4079 35.024H10.8479V47H3.64795V12.176H15.4079Z" fill="#007537"/>
<path d="M37.9548 11.216V47H31.3308V11.216H37.9548Z" fill="#007537"/>
<path d="M54.9063 36.656C53.2903 36.736 51.9463 36.88 50.8743 37.088C49.8023 37.28 48.9463 37.536 48.3063 37.856C47.6823 38.176 47.2343 38.544 46.9623 38.96C46.7063 39.36 46.5783 39.8 46.5783 40.28C46.5783 41.24 46.8423 41.92 47.3703 42.32C47.9143 42.72 48.6663 42.92 49.6263 42.92C50.7303 42.92 51.6823 42.728 52.4823 42.344C53.2983 41.944 54.1063 41.328 54.9063 40.496V36.656ZM41.4183 25.688C42.8743 24.376 44.4823 23.4 46.2423 22.76C48.0023 22.104 49.9063 21.776 51.9543 21.776C53.4263 21.776 54.7383 22.016 55.8903 22.496C57.0583 22.976 58.0423 23.648 58.8423 24.512C59.6583 25.36 60.2823 26.376 60.7143 27.56C61.1463 28.744 61.3623 30.04 61.3623 31.448V47H58.3383C57.7143 47 57.2343 46.912 56.8983 46.736C56.5783 46.56 56.3143 46.192 56.1063 45.632L55.5783 44.048C54.9543 44.592 54.3463 45.072 53.7543 45.488C53.1783 45.904 52.5783 46.256 51.9543 46.544C51.3303 46.816 50.6583 47.024 49.9383 47.168C49.2343 47.312 48.4423 47.384 47.5623 47.384C46.4743 47.384 45.4823 47.24 44.5863 46.952C43.6903 46.664 42.9143 46.24 42.2583 45.68C41.6183 45.104 41.1223 44.392 40.7703 43.544C40.4183 42.696 40.2423 41.72 40.2423 40.616C40.2423 39.704 40.4743 38.792 40.9383 37.88C41.4023 36.968 42.1943 36.144 43.3143 35.408C44.4503 34.656 45.9543 34.04 47.8263 33.56C49.7143 33.064 52.0743 32.784 54.9063 32.72V31.448C54.9063 29.896 54.5783 28.76 53.9223 28.04C53.2663 27.304 52.3223 26.936 51.0903 26.936C50.1783 26.936 49.4183 27.048 48.8103 27.272C48.2023 27.48 47.6663 27.712 47.2023 27.968C46.7543 28.208 46.3303 28.44 45.9303 28.664C45.5303 28.872 45.0663 28.976 44.5383 28.976C44.0743 28.976 43.6823 28.864 43.3623 28.64C43.0583 28.4 42.8023 28.12 42.5943 27.8L41.4183 25.688Z" fill="#007537"/>
<path d="M71.1768 25.136C71.6728 24.656 72.1848 24.216 72.7128 23.816C73.2568 23.416 73.8248 23.072 74.4168 22.784C75.0248 22.496 75.6728 22.272 76.3608 22.112C77.0648 21.952 77.8248 21.872 78.6408 21.872C79.9848 21.872 81.1768 22.104 82.2168 22.568C83.2568 23.032 84.1288 23.68 84.8328 24.512C85.5528 25.344 86.0888 26.336 86.4408 27.488C86.8088 28.64 86.9928 29.904 86.9928 31.28V47H80.3928V31.28C80.3928 29.904 80.0728 28.84 79.4328 28.088C78.7928 27.32 77.8488 26.936 76.6008 26.936C75.6728 26.936 74.8008 27.136 73.9848 27.536C73.1688 27.936 72.3928 28.496 71.6568 29.216V47H65.0328V22.256H69.1128C69.9448 22.256 70.4968 22.64 70.7688 23.408L71.1768 25.136Z" fill="#007537"/>
<path d="M98.9831 47.384C97.8631 47.384 96.8711 47.224 96.0071 46.904C95.1431 46.568 94.4151 46.096 93.8231 45.488C93.2311 44.88 92.7831 44.144 92.4791 43.28C92.1751 42.416 92.0231 41.44 92.0231 40.352V27.008H89.6951C89.3431 27.008 89.0391 26.896 88.7831 26.672C88.5431 26.448 88.4231 26.112 88.4231 25.664V23.072L92.3831 22.352L93.7271 15.944C93.9031 15.224 94.3911 14.864 95.1911 14.864H98.6471V22.4H105.031V27.008H98.6471V39.92C98.6471 40.608 98.8071 41.152 99.1271 41.552C99.4631 41.952 99.9351 42.152 100.543 42.152C100.863 42.152 101.135 42.12 101.359 42.056C101.583 41.976 101.775 41.896 101.935 41.816C102.095 41.72 102.239 41.64 102.367 41.576C102.511 41.496 102.655 41.456 102.799 41.456C102.991 41.456 103.151 41.504 103.279 41.6C103.407 41.68 103.535 41.824 103.663 42.032L105.655 45.2C104.743 45.92 103.711 46.464 102.559 46.832C101.407 47.2 100.215 47.384 98.9831 47.384Z" fill="#007537"/>
<path d="M120.016 36.656C118.4 36.736 117.056 36.88 115.984 37.088C114.912 37.28 114.056 37.536 113.416 37.856C112.792 38.176 112.344 38.544 112.072 38.96C111.816 39.36 111.688 39.8 111.688 40.28C111.688 41.24 111.952 41.92 112.48 42.32C113.024 42.72 113.776 42.92 114.736 42.92C115.84 42.92 116.792 42.728 117.592 42.344C118.408 41.944 119.216 41.328 120.016 40.496V36.656ZM106.528 25.688C107.984 24.376 109.592 23.4 111.352 22.76C113.112 22.104 115.016 21.776 117.064 21.776C118.536 21.776 119.848 22.016 121 22.496C122.168 22.976 123.152 23.648 123.952 24.512C124.768 25.36 125.392 26.376 125.824 27.56C126.256 28.744 126.472 30.04 126.472 31.448V47H123.448C122.824 47 122.344 46.912 122.008 46.736C121.688 46.56 121.424 46.192 121.216 45.632L120.688 44.048C120.064 44.592 119.456 45.072 118.864 45.488C118.288 45.904 117.688 46.256 117.064 46.544C116.44 46.816 115.768 47.024 115.048 47.168C114.344 47.312 113.552 47.384 112.672 47.384C111.584 47.384 110.592 47.24 109.696 46.952C108.8 46.664 108.024 46.24 107.368 45.68C106.728 45.104 106.232 44.392 105.88 43.544C105.528 42.696 105.352 41.72 105.352 40.616C105.352 39.704 105.584 38.792 106.048 37.88C106.512 36.968 107.304 36.144 108.424 35.408C109.56 34.656 111.064 34.04 112.936 33.56C114.824 33.064 117.184 32.784 120.016 32.72V31.448C120.016 29.896 119.688 28.76 119.032 28.04C118.376 27.304 117.432 26.936 116.2 26.936C115.288 26.936 114.528 27.048 113.92 27.272C113.312 27.48 112.776 27.712 112.312 27.968C111.864 28.208 111.44 28.44 111.04 28.664C110.64 28.872 110.176 28.976 109.648 28.976C109.184 28.976 108.792 28.864 108.472 28.64C108.168 28.4 107.912 28.12 107.704 27.8L106.528 25.688Z" fill="#007537"/>
</svg>
