<svg width="24" height="24" viewBox="0 0 24 24" fill="none" xmlns="http://www.w3.org/2000/svg">
<path d="M9 22.0002C9.55228 22.0002 10 21.5525 10 21.0002C10 20.448 9.55228 20.0002 9 20.0002C8.44772 20.0002 8 20.448 8 21.0002C8 21.5525 8.44772 22.0002 9 22.0002Z" stroke="#221F1F" stroke-width="1.5" stroke-linecap="round" stroke-linejoin="round"/>
<path d="M20 22.0002C20.5523 22.0002 21 21.5525 21 21.0002C21 20.448 20.5523 20.0002 20 20.0002C19.4477 20.0002 19 20.448 19 21.0002C19 21.5525 19.4477 22.0002 20 22.0002Z" stroke="#221F1F" stroke-width="1.5" stroke-linecap="round" stroke-linejoin="round"/>
<path d="M1 0.999756H5L7.68 14.3898C7.77144 14.8502 8.02191 15.2637 8.38755 15.5581C8.75318 15.8524 9.2107 16.0088 9.68 15.9998H19.4C19.8693 16.0088 20.3268 15.8524 20.6925 15.5581C21.0581 15.2637 21.3086 14.8502 21.4 14.3898L23 5.99976H6" stroke="#221F1F" stroke-width="1.5" stroke-linecap="round" stroke-linejoin="round"/>
</svg>
